# xmcd
#
# Track frame offsets:
#	150
#	14745
#	34862
#	53846
#	67823
#	81522
#	98320
#	112058
#	128178
#	145909
#	168515
#
# Disc length: 2456 seconds
# Revision: 0
# Processed by: cddbd v1.5.2PL0 Copyright (c) Steve Scherf et al.
# Submitted via: dBpowerAMP V12.0
#
DISCID=9409960b
DTITLE=Steve Smith, Chris Sanders and Hard Road - Signs Along The Road
DYEAR=2009
DGENRE=Bluegrass
TTITLE0=The Same For You
TTITLE1=Steadfast Deliverance
TTITLE2=All Things Left Behind
TTITLE3=Year Of Jubilee
TTITLE4=These Are The Hands
TTITLE5=Isabella
TTITLE6=Jon Sievert's Blues
TTITLE7=Link By Link
TTITLE8=Never Ending Wind
TTITLE9=Kindness Of Strangers
TTITLE10=Mice On The Stove
EXTD=
EXTT0=
EXTT1=
EXTT2=
EXTT3=
EXTT4=
EXTT5=
EXTT6=
EXTT7=
EXTT8=
EXTT9=
EXTT10=
PLAYORDER=
